Coordinates
version=1
nRows=8
nColumns=36
inDegrees=yes

Units are S.I. units (second, meters, Newtons, ...)
If the header above contains a line with 'inDegrees', this indicates whether rotational values are in degrees (yes) or radians (no).

endheader
time	pelvis_tilt	pelvis_list	pelvis_rotation	pelvis_tx	pelvis_ty	pelvis_tz	hip_flexion_r	hip_adduction_r	hip_rotation_r	knee_angle_r	knee_angle_r_beta	ankle_angle_r	subtalar_angle_r	mtp_angle_r	hip_flexion_l	hip_adduction_l	hip_rotation_l	knee_angle_l	knee_angle_l_beta	ankle_angle_l	subtalar_angle_l	mtp_angle_l	lumbar_extension	lumbar_bending	lumbar_rotation	arm_flex_r	arm_add_r	arm_rot_r	elbow_flex_r	pro_sup_r	arm_flex_l	arm_add_l	arm_rot_l	elbow_flex_l	pro_sup_l
     29.68333330	     -6.49971512	     -0.78340871	     -1.05513607	      0.95848776	      0.78852235	      0.71220797	     -8.91935924	      3.18442900	      2.68801442	      7.34625395	      0.12821632	     21.95827182	      3.01273276	     -7.49999987	     34.47081982	     -0.02367593	      2.48341771	      4.86570525	      0.08492258	      9.97427095	      3.01339531	     -7.49999987	      1.38349160	      2.21211003	      6.42076552	     15.77424020	    -20.04111564	      5.84154088	     27.69355787	     88.20285382	      1.83854704	     -7.23211882	      2.50359297	      7.40801377	     90.52390924
     29.70000000	     -6.48938393	     -0.04515060	     -0.87911802	      0.95857178	      0.78739363	      0.71070652	    -10.01247535	      2.20071249	      2.64451487	      8.06820996	      0.14081683	     22.39341262	      2.46392838	     -7.49999987	     34.65165952	      0.85818235	      2.04280551	      6.76370551	      0.11804893	      9.37901595	      2.35835451	     -7.49999987	      1.74705897	      1.27344411	      6.33216821	     15.61524717	    -19.80470560	      5.82790216	     27.89928186	     88.08192917	      1.46392452	     -7.52456675	      2.41332330	      7.93314150	     90.35181185
     29.71666670	     -5.95385325	      0.74290833	     -0.80156122	      0.95875863	      0.78780636	      0.70949798	    -11.49755784	      1.14833265	      2.71345616	      8.94828596	      0.15617705	     22.10619690	      1.24537663	     -7.49999987	     34.08135103	      1.81156373	      2.03594576	      8.77060715	      0.15307597	      8.02662557	      0.51424789	     -7.49999987	      1.44458024	      0.18962865	      6.22826930	     15.79137601	    -19.29229070	      5.42844148	     27.34394540	     88.45058782	      1.83542759	     -7.67204414	      2.11792203	      7.01345400	     90.64555949
     29.73333330	     -5.71647802	      1.49850459	     -0.82067434	      0.96007060	      0.78847745	      0.70833259	    -12.45032047	      0.09121838	      2.59828047	     10.20193378	      0.17805733	     21.63957932	      0.33920998	     -7.49999987	     33.81393179	      2.68389658	      1.69514307	     11.03342007	      0.19256951	      6.81074118	     -0.60145339	     -7.49999987	      1.41545613	     -0.82655287	      6.26756452	     15.54454299	    -18.81915474	      5.20095274	     26.92747401	     88.68841361	      1.89003192	     -7.91125949	      1.98052079	      6.86172475	     90.81905522
     29.75000000	     -5.50794117	      2.18315032	     -0.85584317	      0.96336436	      0.78926092	      0.70765519	    -13.20827615	     -0.92050634	      2.08127672	     11.79797614	      0.20591353	     20.46255441	     -0.23763276	     -7.49999987	     33.45901586	      3.46864267	      1.33996108	     13.25243007	      0.23129854	      5.69960019	     -1.27619748	     -7.49999987	      1.41613651	     -1.80889766	      6.25413040	     15.05922834	    -18.27070893	      5.18938185	     26.62890228	     88.77563270	      1.85497943	     -8.18812173	      1.93132025	      6.79368923	     90.86531310
     29.76666670	     -5.12374260	      2.75498312	     -0.87515352	      0.96803123	      0.79084864	      0.70769910	    -13.64222294	     -1.74056421	      2.07889682	     14.29939744	      0.24957157	     18.02989705	     -2.30735751	     -7.49999987	     32.69331542	      4.29185583	      1.97279308	     15.19367818	      0.26517971	      4.27342616	     -3.61584524	     -7.49999987	      1.20612525	     -2.66861172	      6.24336043	     14.67667779	    -17.49603103	      4.68600008	     25.58141274	     89.15650492	      1.95999534	     -8.42971392	      1.79669043	      6.55535691	     91.09963398
     29.78333330	     -4.74343624	      3.20707744	     -0.65377856	      0.97254076	      0.79404333	      0.70761549	    -13.14194573	     -2.45180741	      1.31883924	     18.35169798	      0.32029755	     14.50807640	     -3.98538368	     -7.49999987	     31.79114109	      5.07703896	      2.37771141	     17.09886260	      0.29843145	      3.68323640	     -4.81583643	     -7.49999987	      0.91415096	     -3.45015400	      5.82962792	     14.03120377	    -16.73139510	      4.39870256	     24.94336813	     89.54056204	      2.04646614	     -8.71630539	      1.72308785	      6.49217339	     91.28899268
     29.80000000	     -4.31762580	      3.54700537	     -0.33539436	      0.97499047	      0.79969853	      0.70684237	    -11.46352514	     -3.14718246	      0.35554361	     24.19880915	      0.42234889	      9.22903011	     -6.16995215	     -7.49999987	     30.59472793	      5.82176547	      2.93004869	     18.69076214	      0.32621534	      3.54086916	     -5.80844719	     -7.49999987	      0.40904352	     -3.90407615	      5.10825158	     13.28536910	    -15.84194554	      4.25737620	     24.46775975	     89.77698226	      2.18095334	     -9.11731881	      1.72442572	      6.81705550	     91.27062472
